<svg viewBox="0 0 520 260" fill="none" xmlns="http://www.w3.org/2000/svg" class="hero-illustration" aria-hidden="true">
  <circle cx="90" cy="130" r="90" fill="hsl(180 22% 80% / .25)" />
  <circle cx="430" cy="130" r="90" fill="hsl(210 46% 69% / .2)" />
  <rect x="140" y="80" width="240" height="100" rx="50" fill="hsl(0 0% 97.3%)" />
  <path d="M90 130 C160 130, 160 130, 200 130 C240 130, 280 130, 320 130 C360 130, 360 130, 430 130" stroke="hsl(210 46% 69%)" stroke-width="2" stroke-dasharray="6 4" opacity="0.6" />
  <g>
    <circle cx="90" cy="130" r="32" fill="white" stroke="hsl(0 0% 81.6%)" stroke-width="1.5" />
    <rect x="78" y="120" width="24" height="20" rx="2" fill="none" stroke="hsl(210 46% 69%)" stroke-width="1.8" />
    <line x1="90" y1="112" x2="78" y2="120" stroke="hsl(210 46% 69%)" stroke-width="1.8" />
    <line x1="90" y1="112" x2="102" y2="120" stroke="hsl(210 46% 69%)" stroke-width="1.8" />
    <rect x="83" y="125" width="4" height="4" rx="0.5" fill="hsl(210 46% 69%)" opacity="0.5" />
    <rect x="93" y="125" width="4" height="4" rx="0.5" fill="hsl(210 46% 69%)" opacity="0.5" />
    <rect x="83" y="132" width="4" height="4" rx="0.5" fill="hsl(210 46% 69%)" opacity="0.5" />
    <rect x="93" y="132" width="4" height="4" rx="0.5" fill="hsl(210 46% 69%)" opacity="0.5" />
  </g>
  <g>
    <circle cx="220" cy="130" r="28" fill="white" stroke="hsl(0 0% 81.6%)" stroke-width="1.5" />
    <ellipse cx="220" cy="120" rx="12" ry="5" fill="none" stroke="hsl(180 22% 80%)" stroke-width="1.8" />
    <path d="M208 120 L208 138 C208 141, 220 143, 220 143 C220 143, 232 141, 232 138 L232 120" fill="none" stroke="hsl(180 22% 80%)" stroke-width="1.8" />
    <path d="M208 128 C208 131, 220 133, 220 133 C220 133, 232 131, 232 128" fill="none" stroke="hsl(180 22% 80%)" stroke-width="1.2" opacity="0.5" />
  </g>
  <g>
    <circle cx="330" cy="130" r="28" fill="white" stroke="hsl(0 0% 81.6%)" stroke-width="1.5" />
    <circle cx="330" cy="130" r="8" fill="none" stroke="hsl(210 46% 69%)" stroke-width="1.8" />
    <circle cx="330" cy="130" r="3" fill="hsl(210 46% 69%)" opacity="0.4" />
    <line x1="330" y1="120" x2="330" y2="116" stroke="hsl(210 46% 69%)" stroke-width="2" stroke-linecap="round" />
    <line x1="340" y1="130" x2="344" y2="130" stroke="hsl(210 46% 69%)" stroke-width="2" stroke-linecap="round" />
    <line x1="330" y1="140" x2="330" y2="144" stroke="hsl(210 46% 69%)" stroke-width="2" stroke-linecap="round" />
    <line x1="320" y1="130" x2="316" y2="130" stroke="hsl(210 46% 69%)" stroke-width="2" stroke-linecap="round" />
    <line x1="337.07" y1="122.93" x2="340.49" y2="119.51" stroke="hsl(210 46% 69%)" stroke-width="2" stroke-linecap="round" />
    <line x1="337.07" y1="137.07" x2="340.49" y2="140.49" stroke="hsl(210 46% 69%)" stroke-width="2" stroke-linecap="round" />
    <line x1="322.93" y1="137.07" x2="319.51" y2="140.49" stroke="hsl(210 46% 69%)" stroke-width="2" stroke-linecap="round" />
    <line x1="322.93" y1="122.93" x2="319.51" y2="119.51" stroke="hsl(210 46% 69%)" stroke-width="2" stroke-linecap="round" />
  </g>
  <g>
    <circle cx="430" cy="130" r="32" fill="white" stroke="hsl(0 0% 81.6%)" stroke-width="1.5" />
    <rect x="426" y="112" width="8" height="24" rx="4" fill="none" stroke="hsl(180 22% 80%)" stroke-width="1.8" />
    <circle cx="430" cy="140" r="6" fill="none" stroke="hsl(180 22% 80%)" stroke-width="1.8" />
    <rect x="428" y="118" width="4" height="14" rx="2" fill="hsl(180 22% 80%)" opacity="0.4" />
    <circle cx="430" cy="140" r="3.5" fill="hsl(180 22% 80%)" opacity="0.4" />
  </g>
  <text x="90" y="178" text-anchor="middle" fill="#64748b" font-size="10" font-weight="500">Bygning</text>
  <text x="220" y="174" text-anchor="middle" fill="#64748b" font-size="10" font-weight="500">Data</text>
  <text x="330" y="174" text-anchor="middle" fill="#64748b" font-size="10" font-weight="500">Algoritme</text>
  <text x="430" y="178" text-anchor="middle" fill="#64748b" font-size="10" font-weight="500">Komfort</text>
  <polygon points="152,127 158,130 152,133" fill="hsl(210 46% 69%)" opacity="0.5" />
  <polygon points="272,127 278,130 272,133" fill="hsl(210 46% 69%)" opacity="0.5" />
  <polygon points="378,127 384,130 378,133" fill="hsl(210 46% 69%)" opacity="0.5" />
</svg>